<?xml version="1.0" encoding="utf-8"?>
<!-- Generator: Adobe Illustrator 15.0.0, SVG Export Plug-In . SVG Version: 6.00 Build 0)  -->
<!DOCTYPE svg PUBLIC "-//W3C//DTD SVG 1.1//EN" "http://www.w3.org/Graphics/SVG/1.1/DTD/svg11.dtd">
<svg version="1.1" id="Layer_1" xmlns="http://www.w3.org/2000/svg" xmlns:xlink="http://www.w3.org/1999/xlink" x="0px" y="0px"
	 width="96px" height="70px" viewBox="0 0 96 70" enable-background="new 0 0 96 70" xml:space="preserve">
<radialGradient id="SVGID_1_" cx="35" cy="35" r="42.2128" gradientUnits="userSpaceOnUse">
	<stop  offset="0" style="stop-color:#333333;stop-opacity:0"/>
	<stop  offset="0.0308" style="stop-color:#393435;stop-opacity:0.1232"/>
	<stop  offset="0.0736" style="stop-color:#49383C;stop-opacity:0.2946"/>
	<stop  offset="0.1236" style="stop-color:#653B48;stop-opacity:0.4943"/>
	<stop  offset="0.1789" style="stop-color:#903A57;stop-opacity:0.7154"/>
	<stop  offset="0.2379" style="stop-color:#CD2368;stop-opacity:0.9515"/>
	<stop  offset="0.25" style="stop-color:#DF156C"/>
	<stop  offset="0.2833" style="stop-color:#C02C64;stop-opacity:0.9555"/>
	<stop  offset="0.3468" style="stop-color:#963A59;stop-opacity:0.871"/>
	<stop  offset="0.4159" style="stop-color:#743C4D;stop-opacity:0.7788"/>
	<stop  offset="0.4908" style="stop-color:#5B3A44;stop-opacity:0.679"/>
	<stop  offset="0.5736" style="stop-color:#49383C;stop-opacity:0.5685"/>
	<stop  offset="0.6689" style="stop-color:#3D3537;stop-opacity:0.4415"/>
	<stop  offset="0.7873" style="stop-color:#353334;stop-opacity:0.2836"/>
	<stop  offset="1" style="stop-color:#333333;stop-opacity:0"/>
</radialGradient>
<path fill="url(#SVGID_1_)" d="M70,35.004C70,15.667,54.326,0,34.996,0C15.671,0,0,15.667,0,35.004C0,54.332,15.671,70,34.996,70
	C54.326,70,70,54.332,70,35.004z"/>
<path fill="#FFFFFF" d="M34.999,22.828c-6.722,0-12.17,5.448-12.17,12.171c0,6.722,5.448,12.169,12.17,12.169
	c6.721,0,12.169-5.447,12.169-12.169C47.168,28.276,41.72,22.828,34.999,22.828z M34.999,44.8c-5.412,0-9.801-4.386-9.801-9.801
	c0-5.413,4.389-9.802,9.801-9.802c5.411,0,9.8,4.389,9.8,9.802C44.799,40.414,40.41,44.8,34.999,44.8z"/>
<g>
	<path fill="#FFFFFF" d="M52.853,28.131v10.632c0,3.986,1.78,5.688,4.173,5.688c2.631,0,4.358-1.756,4.358-5.688V28.131h2.338
		v10.471c0,5.501-2.896,7.735-6.775,7.735c-3.67,0-6.432-2.073-6.432-7.656v-10.55H52.853z"/>
	<path fill="#FFFFFF" d="M67.747,28.37c1.17-0.212,2.871-0.371,4.44-0.371c2.472,0,4.091,0.479,5.182,1.461
		c0.878,0.797,1.408,2.02,1.408,3.428c0,2.339-1.487,3.906-3.347,4.546v0.079c1.354,0.479,2.177,1.753,2.603,3.612
		c0.586,2.499,1.01,4.228,1.381,4.916h-2.393c-0.289-0.53-0.688-2.045-1.167-4.276c-0.533-2.472-1.515-3.401-3.615-3.483h-2.179
		v7.76h-2.313V28.37z M70.061,36.528h2.365c2.472,0,4.038-1.354,4.038-3.401c0-2.312-1.673-3.321-4.118-3.321
		c-1.115,0-1.887,0.08-2.285,0.187V36.528z"/>
	<path fill="#FFFFFF" d="M85.086,40.408l-1.862,5.633h-2.39l6.113-17.91h2.762l6.114,17.91h-2.472l-1.914-5.633H85.086z
		 M90.983,38.602l-1.777-5.154c-0.399-1.171-0.667-2.233-0.933-3.27h-0.052c-0.268,1.036-0.53,2.152-0.902,3.242l-1.755,5.182
		H90.983z"/>
</g>
</svg>
